<mxfile host="app.diagrams.net" agent="Mozilla/5.0 (Windows NT 10.0; Win64; x64; rv:137.0) Gecko/20100101 Firefox/137.0" version="26.2.13">
  <diagram name="Page-1" id="NtBqkps6XmYwAPOiUv5h">
    <mxGraphModel dx="265" dy="218" grid="1" gridSize="10" guides="1" tooltips="1" connect="1" arrows="1" fold="1" page="1" pageScale="1" pageWidth="850" pageHeight="1100" math="0" shadow="0">
      <root>
        <mxCell id="0" />
        <mxCell id="1" parent="0" />
        <mxCell id="RBDzkdDMLqAT5gV6AW90-1" value="" style="ellipse;whiteSpace=wrap;html=1;aspect=fixed;sketch=1;curveFitting=1;jiggle=2;fillColor=#f8cecc;strokeColor=#b85450;direction=south;" vertex="1" parent="1">
          <mxGeometry x="60" y="170" width="80" height="80" as="geometry" />
        </mxCell>
        <mxCell id="RBDzkdDMLqAT5gV6AW90-2" value="" style="ellipse;whiteSpace=wrap;html=1;aspect=fixed;sketch=1;curveFitting=1;jiggle=2;fillColor=#dae8fc;strokeColor=#6c8ebf;direction=south;" vertex="1" parent="1">
          <mxGeometry x="110" y="170" width="80" height="80" as="geometry" />
        </mxCell>
        <mxCell id="RBDzkdDMLqAT5gV6AW90-3" value="" style="ellipse;whiteSpace=wrap;html=1;aspect=fixed;sketch=1;curveFitting=1;jiggle=2;fillColor=#d5e8d4;strokeColor=#82b366;direction=south;" vertex="1" parent="1">
          <mxGeometry x="90" y="210" width="80" height="80" as="geometry" />
        </mxCell>
        <mxCell id="RBDzkdDMLqAT5gV6AW90-5" value="Understanding" style="rounded=0;whiteSpace=wrap;html=1;strokeColor=none;fontSize=7;" vertex="1" parent="1">
          <mxGeometry x="102.5" y="260" width="55" height="10" as="geometry" />
        </mxCell>
        <mxCell id="RBDzkdDMLqAT5gV6AW90-6" value="Learning" style="rounded=0;whiteSpace=wrap;html=1;strokeColor=none;fontSize=7;" vertex="1" parent="1">
          <mxGeometry x="147" y="200" width="35" height="10" as="geometry" />
        </mxCell>
        <mxCell id="RBDzkdDMLqAT5gV6AW90-7" value="Knowing" style="rounded=0;whiteSpace=wrap;html=1;strokeColor=none;fontSize=7;" vertex="1" parent="1">
          <mxGeometry x="67.5" y="200" width="35" height="10" as="geometry" />
        </mxCell>
      </root>
    </mxGraphModel>
  </diagram>
</mxfile>
